<svg xmlns="http://www.w3.org/2000/svg" width="139.28" height="37.743" viewBox="0 0 139.28 37.743">
  <g id="Logo" transform="translate(-119.72 -11.35)">
    <path id="Union_1" data-name="Union 1" d="M21.8,30.722l2.636-5.271-4.68-9.36h1.9l3.721,7.464,3.744-7.464h1.9l-4.68,9.384L23.951,30.21a30.807,30.807,0,0,1,8.5-1.017V16.09h1.608v1.728a5.168,5.168,0,0,1,3.984-1.9,5.5,5.5,0,0,1,5.472,5.472,5.575,5.575,0,0,1-5.472,5.521,5.138,5.138,0,0,1-3.984-1.944v4.589c6.34,2.225,20.147,3.11,20.147,3.11s8.137-6.5,17.744-6.5a12.8,12.8,0,0,0,6.821-2.438,8.793,8.793,0,0,1-2.112-5.716,8.936,8.936,0,0,1,14.605-6.657c1.379-1.6,2.367-2.664,2.814-2.664s1.091.5,1.8,1.261v-1.4h1.608v3.34c1.1,1.458,2.159,3.075,2.79,4.067a5.531,5.531,0,0,1,.666-.039,7.394,7.394,0,0,1,1.36.113C108.069,12.566,129.437-.1,134,0V37.7L0,37.743A227.47,227.47,0,0,1,21.8,30.722Zm12.356-9.328a4.052,4.052,0,0,0,3.936,3.937,3.854,3.854,0,0,0,3.744-3.937,3.782,3.782,0,0,0-3.744-3.888A3.976,3.976,0,0,0,34.152,21.394ZM78.48,18.01A7.11,7.11,0,0,0,80.222,22.7a67.924,67.924,0,0,0,9.9-10.016A7.137,7.137,0,0,0,78.48,18.01ZM51.84,21.394a5.472,5.472,0,0,1,10.944,0,5.472,5.472,0,1,1-10.944,0Zm1.68,0a3.794,3.794,0,1,0,7.583,0,3.793,3.793,0,1,0-7.583,0ZM-5.28,18.01a8.944,8.944,0,0,1,16.537-4.464H9.072a7.063,7.063,0,0,0-5.4-2.471A7.059,7.059,0,0,0-3.456,18.01a7.1,7.1,0,0,0,7.128,7.128A6.941,6.941,0,0,0,9.12,22.57H11.3A8.934,8.934,0,0,1-5.28,18.01Zm51.817,8.64v-9.1H44.952V16.09h1.584V11.939h1.607V16.09H50.52v1.464H48.144v9.1Zm-32.593,0V16.09h1.608v1.44a4.694,4.694,0,0,1,3.576-1.608v1.584a3.307,3.307,0,0,0-3.576,3.312V26.65ZM65.184,20.6V18.995h9.192V20.6Z" transform="translate(125 11.35)" fill="#fff"/>
    <path id="Intersection_1" data-name="Intersection 1" d="M38.448,31.451V29.193a5.486,5.486,0,0,1,1.37.281l.238.086v1.891Zm-11.016,0,.364-.729c.731-.183,1.45-.354,2.155-.511l-.623,1.24Zm86.112-10.057a5.5,5.5,0,0,1,5.472-5.472,5.168,5.168,0,0,1,3.984,1.9V16.09h1.607V26.7H123V24.971a5.138,5.138,0,0,1-3.984,1.944A5.575,5.575,0,0,1,113.544,21.394Zm1.68,0a3.853,3.853,0,0,0,3.744,3.937,4.052,4.052,0,0,0,3.936-3.937,3.976,3.976,0,0,0-3.936-3.888A3.781,3.781,0,0,0,115.224,21.394ZM84.768,23.726c.488-.32.974-.665,1.454-1.029a7.1,7.1,0,0,0,5.386,2.441,6.941,6.941,0,0,0,5.448-2.568H99.24a8.935,8.935,0,0,1-14.472,1.156Zm51.168,2.924v-9.1h-1.584V16.09h1.584V11.939h1.608V16.09h2.376v1.464h-2.376v9.1Zm-7.968,0V16.09h1.607v1.44a4.7,4.7,0,0,1,3.577-1.608v1.584a3.308,3.308,0,0,0-3.577,3.312V26.65Zm-18.312,0V20.626c0-2.088-.96-3.12-2.712-3.12a3.167,3.167,0,0,0-3.456,3.528V26.65H101.88V9.95a23.989,23.989,0,0,1,1.608,1.944v5.467a4.435,4.435,0,0,1,2.79-1.4c.367.577.589.943.589.943s.522-.319,1.437-.87c2.057.386,2.96,1.787,2.96,4.591V26.65Zm-12.648-13.1a7.11,7.11,0,0,0-.882-.865c.4-.472.781-.918,1.135-1.328a9.03,9.03,0,0,1,1.931,2.193Z" transform="translate(119 11.35)" fill="#181b1c"/>
  </g>
</svg>
