<svg xmlns="http://www.w3.org/2000/svg" width="133.999" height="103.371" viewBox="0 0 133.999 103.371">
  <g id="pc_svg" transform="translate(0 0)">
    <g id="Union_2" data-name="Union 2" transform="translate(337 1066.314)" fill="none">
      <path d="M-315.114-962.943a2,2,0,0,1-2-2v-3.571a2,2,0,0,1,2-2h30.972V-984H-332a5,5,0,0,1-5-5v-72.314a5,5,0,0,1,5-5h124a5,5,0,0,1,5,5V-989a5,5,0,0,1-5,5h-47.857v13.486h32.971a2,2,0,0,1,2,2v3.571a2,2,0,0,1-2,2Z" stroke="none"/>
      <path d="M -222.8859100341797 -964.9432983398438 L -222.8861083984375 -964.9432983398438 L -222.8859100341797 -968.5140991210938 L -255.8574066162109 -968.5140991210938 L -257.8573913574219 -968.5140991210938 L -257.8573913574219 -970.5140991210938 L -257.8573913574219 -983.9996948242188 L -257.8573913574219 -985.9996948242188 L -255.8574066162109 -985.9996948242188 L -207.9999084472656 -985.9996948242188 C -206.3459777832031 -985.9996948242188 -205.0004119873047 -987.3456420898438 -205.0004119873047 -989.0001220703125 L -205.0004119873047 -1061.314208984375 C -205.0004119873047 -1062.968627929688 -206.3459777832031 -1064.314575195312 -207.9999084472656 -1064.314575195312 L -332.0001220703125 -1064.314575195312 C -333.6540222167969 -1064.314575195312 -334.9996032714844 -1062.968627929688 -334.9996032714844 -1061.314208984375 L -334.9996032714844 -989.0001220703125 C -334.9996032714844 -987.3456420898438 -333.6540222167969 -985.9996948242188 -332.0001220703125 -985.9996948242188 L -284.1426086425781 -985.9996948242188 L -282.1426086425781 -985.9996948242188 L -282.1426086425781 -983.9996948242188 L -282.1426086425781 -970.5140991210938 L -282.1426086425781 -968.5140991210938 L -284.1426086425781 -968.5140991210938 L -315.1141052246094 -968.5143432617188 L -315.1143188476562 -964.9432983398438 L -222.8859100341797 -964.9432983398438 M -222.8859100341797 -962.9432983398438 L -315.1143188476562 -962.9432983398438 C -316.2185974121094 -962.9432983398438 -317.1141052246094 -963.8379516601562 -317.1141052246094 -964.943115234375 L -317.1141052246094 -968.5143432617188 C -317.1141052246094 -969.61865234375 -316.2185974121094 -970.5140991210938 -315.1143188476562 -970.5140991210938 L -284.1426086425781 -970.5140991210938 L -284.1426086425781 -983.9996948242188 L -332.0001220703125 -983.9996948242188 C -334.7613220214844 -983.9996948242188 -336.9996032714844 -986.2389526367188 -336.9996032714844 -989.0001220703125 L -336.9996032714844 -1061.314208984375 C -336.9996032714844 -1064.075439453125 -334.7613220214844 -1066.314575195312 -332.0001220703125 -1066.314575195312 L -207.9999084472656 -1066.314575195312 C -205.2387084960938 -1066.314575195312 -203.0004119873047 -1064.075439453125 -203.0004119873047 -1061.314208984375 L -203.0004119873047 -989.0001220703125 C -203.0004119873047 -986.2389526367188 -205.2387084960938 -983.9996948242188 -207.9999084472656 -983.9996948242188 L -255.8574066162109 -983.9996948242188 L -255.8574066162109 -970.5140991210938 L -222.8859100341797 -970.5140991210938 C -221.7816009521484 -970.5140991210938 -220.8861083984375 -969.61865234375 -220.8861083984375 -968.5143432617188 L -220.8861083984375 -964.943115234375 C -220.8861083984375 -963.8379516601562 -221.7816009521484 -962.9432983398438 -222.8859100341797 -962.9432983398438 Z" stroke="none" fill="#fff"/>
    </g>
    <g id="Rectangle_11" data-name="Rectangle 11" transform="translate(6.829 5.829)" fill="none" stroke="#fff" stroke-width="2">
      <rect width="121.343" height="70.657" rx="3" stroke="none"/>
      <rect x="1" y="1" width="119.343" height="68.657" rx="2" fill="none"/>
    </g>
    <g id="bars">
      <g id="Rectangle_12" data-name="Rectangle 12" transform="translate(86.143 22.971)" fill="none" stroke="#fff" stroke-width="2">
        <rect width="13.4" height="47.857" stroke="none"/>
        <rect x="1" y="1" width="11.4" height="45.857" fill="none"/>
      </g>
      <g id="Rectangle_14" data-name="Rectangle 14" transform="translate(68.914 17.229)" fill="none" stroke="#fff" stroke-width="2">
        <rect width="13.4" height="53.6" stroke="none"/>
        <rect x="1" y="1" width="11.4" height="51.6" fill="none"/>
      </g>
      <g id="Rectangle_15" data-name="Rectangle 15" transform="translate(51.686 38.286)" fill="none" stroke="#fff" stroke-width="2">
        <rect width="13.4" height="32.543" stroke="none"/>
        <rect x="1" y="1" width="11.4" height="30.543" fill="none"/>
      </g>
      <g id="Rectangle_16" data-name="Rectangle 16" transform="translate(34.457 32.543)" fill="none" stroke="#fff" stroke-width="2">
        <rect width="13.4" height="38.286" stroke="none"/>
        <rect x="1" y="1" width="11.4" height="36.286" fill="none"/>
      </g>
    </g>
  </g>
</svg>
