<svg xmlns="http://www.w3.org/2000/svg" width="101.2" height="131.774" viewBox="0 0 101.2 131.774">
  <g id="PERSON" transform="translate(-677.996 -1054.556)">
    <g id="Ellipse_1" data-name="Ellipse 1" transform="translate(699.404 1054.556)" fill="none" stroke="#fff" stroke-width="2">
      <circle cx="29.192" cy="29.192" r="29.192" stroke="none"/>
      <circle cx="29.192" cy="29.192" r="28.192" fill="none"/>
    </g>
    <path id="Subtraction_5" data-name="Subtraction 5" d="M-277.081,59.125h-40.455a63.583,63.583,0,0,1,3.913-21.857A57.719,57.719,0,0,1-302.965,19.2,49.657,49.657,0,0,1-287.2,7.047,43.918,43.918,0,0,1-267.941,2.6a43.919,43.919,0,0,1,19.259,4.444A49.638,49.638,0,0,1-232.916,19.2a57.693,57.693,0,0,1,10.658,18.068,63.585,63.585,0,0,1,3.913,21.856h-39.237l-3.956-42.537h-.727a8.1,8.1,0,0,1-5.675,2.3,8.1,8.1,0,0,1-5.675-2.3h-.607l-2.858,42.537Z" transform="translate(996.537 1113.234)" fill="none" stroke="#fff" stroke-width="2"/>
    <path id="Subtraction_4" data-name="Subtraction 4" d="M-308.784,71.475h0l-9.753-12.3,2.862-42.592h.607a8.1,8.1,0,0,0,5.675,2.3,8.1,8.1,0,0,0,5.676-2.3h.727l3.961,42.592-9.753,12.3Z" transform="translate(1037.989 1113.234)" fill="none" stroke="#fff" stroke-width="2"/>
    <g id="Ellipse_4" data-name="Ellipse 4" transform="translate(719.452 1114.837)" fill="none" stroke="#fff" stroke-width="2">
      <circle cx="9.144" cy="9.144" r="9.144" stroke="none"/>
      <circle cx="9.144" cy="9.144" r="8.144" fill="none"/>
    </g>
    <path id="Path_10" data-name="Path 10" d="M716.272,1066.42a7.843,7.843,0,0,1,4.279-1.373,6.2,6.2,0,0,1,3.859,1.373" transform="translate(8.768 11.593)" fill="none" stroke="#fff" stroke-width="2"/>
    <path id="Path_11" data-name="Path 11" d="M703.528,1065.9H694.1" transform="translate(6.516 11.546)" fill="none" stroke="#fff" stroke-width="2"/>
    <path id="Path_12" data-name="Path 12" d="M694.874,1065.671H702.6" transform="translate(53.954 11.655)" fill="none" stroke="#fff" stroke-width="2"/>
    <g id="Rectangle_18" data-name="Rectangle 18" transform="translate(708.217 1074.385)" fill="none" stroke="#fff" stroke-width="2">
      <rect width="17.625" height="13.219" rx="3" stroke="none"/>
      <rect x="1" y="1" width="15.625" height="11.219" rx="2" fill="none"/>
    </g>
    <g id="Rectangle_19" data-name="Rectangle 19" transform="translate(732.452 1074.385)" fill="none" stroke="#fff" stroke-width="2">
      <rect width="17.625" height="13.219" rx="3" stroke="none"/>
      <rect x="1" y="1" width="15.625" height="11.219" rx="2" fill="none"/>
    </g>
  </g>
</svg>
