<svg id="Layer_1" data-name="Layer 1" xmlns="http://www.w3.org/2000/svg" viewBox="0 0 32 32"><defs><style>.cls-1{fill:#a0a0a0;}</style></defs><title>Twitter</title><path class="cls-1" d="M16,0A16,16,0,1,0,32,16,16,16,0,0,0,16,0Zm6.39,13.51c0,.14,0,.28,0,.43A9.35,9.35,0,0,1,8,21.81a6.65,6.65,0,0,0,4.87-1.36A3.29,3.29,0,0,1,9.8,18.17a3.26,3.26,0,0,0,.62.06,3.19,3.19,0,0,0,.87-.12,3.29,3.29,0,0,1-2.64-3.22v0a3.29,3.29,0,0,0,1.49.41,3.29,3.29,0,0,1-1-4.39,9.34,9.34,0,0,0,6.78,3.44,3.29,3.29,0,0,1,5.6-3,6.57,6.57,0,0,0,2.09-.8,3.29,3.29,0,0,1-1.45,1.82A6.56,6.56,0,0,0,24,11.81,6.66,6.66,0,0,1,22.39,13.51Z"/></svg>